<?xml version="1.0" encoding="utf-8"?>
<!-- Generator: Adobe Illustrator 19.1.0, SVG Export Plug-In . SVG Version: 6.00 Build 0)  -->
<svg version="1.1" id="レイヤー_1" xmlns="http://www.w3.org/2000/svg" xmlns:xlink="http://www.w3.org/1999/xlink" x="0px"
	 y="0px" viewBox="0 0 361 84.3" style="enable-background:new 0 0 361 84.3;" xml:space="preserve">
<style type="text/css">
	.st0{fill:#323232;}
	.st1{opacity:0.3;fill:#E59CB3;}
	.st2{opacity:0.3;fill:#C09EC8;}
	.st3{opacity:0.3;fill:#9ECFE6;}
	.st4{opacity:0.3;fill:#BBDB9C;}
</style>
<g>
	<path class="st0" d="M149.1,83.7V42c0-9.5-7.9-17.1-17-17.1c-9.4,0-21.3,5.6-21.3,15v43.9h-4.2V21h4.2V29
		c4.8-6.2,15.3-8.4,21.3-8.4c11.4,0,21.2,7.9,21.2,21.3v41.8H149.1z"/>
	<path class="st0" d="M228.5,54.4h-57.9c1.3,14.8,12.1,25.6,26.2,25.6c6.6,0,14.8-1,20.6-5.9l3.2,3.2c-6.9,5.6-16.1,7.1-23.8,7.1
		c-7.8,0-15.7-2.7-21.5-8.2c-6.6-6.3-9.2-14.5-9.2-23.6c0-17.9,12.7-32.3,30.7-32.3c9.2,0,17,4,23.6,10.5v0.1
		c5.5,6.3,8.8,13.4,8.2,21.5L228.5,54.4z M170.6,50.2h53.6c-1.4-14.7-13.4-25.5-27.4-25.5C182.7,24.7,171.9,35.6,170.6,50.2z"/>
	<path class="st0" d="M241.2,3.6c0-2.2,1.6-3.6,3.7-3.6c2,0,3.6,1.6,3.6,3.6c0,2.2-1.7,3.7-3.6,3.7C242.8,7.3,241.2,5.8,241.2,3.6z
		 M242.6,83.7V19.4h4.3v64.4H242.6z"/>
	<path class="st0" d="M270.3,83.7H266V19.2h4.3v16.4c6.6-10.1,15.8-16.1,26.9-16.4v4.3C282,24,270.3,36.8,270.3,51.8V83.7z"/>
	<path class="st0" d="M300.5,51.9c0-17.9,12.4-33,30.2-33s30.2,15.1,30.2,33c0,18.1-12.4,32.4-30.2,32.4S300.5,70.1,300.5,51.9z
		 M304.8,51.9c0,15.3,10.5,28.1,25.9,28.1c15.3,0,25.8-12.8,25.8-28.1c0-15.6-10.5-28.7-25.8-28.7C315.3,23.3,304.8,36.4,304.8,51.9
		z"/>
</g>
<circle class="st1" cx="58" cy="74.4" r="9.9"/>
<circle class="st2" cx="28.1" cy="62.1" r="13.8"/>
<circle class="st3" cx="62.5" cy="38.7" r="17.9"/>
<circle class="st4" cx="20.9" cy="20.9" r="20.9"/>
</svg>
