<?xml version="1.0" encoding="utf-8"?>
<!-- Generator: Adobe Illustrator 19.1.0, SVG Export Plug-In . SVG Version: 6.00 Build 0)  -->
<svg version="1.1" id="レイヤー_1" xmlns="http://www.w3.org/2000/svg" xmlns:xlink="http://www.w3.org/1999/xlink" x="0px"
	 y="0px" viewBox="-267 390.9 60 60" style="enable-background:new -267 390.9 60 60;" xml:space="preserve">
<style type="text/css">
	.st0{fill:#999999;}
</style>
<g>
	<path class="st0" d="M-238.6,418.8c2.9,0,5.8,0,8.8,0c0.2,0,0.2,0.1,0.3,0.2c0.2,1.4,0.3,2.7,0.2,4.1c-0.1,2.6-0.6,5.1-1.7,7.4
		c-2.2,4.7-5.8,7.8-10.8,9.2c-2.3,0.7-4.6,0.9-6.9,0.7c-3.9-0.2-7.3-1.4-10.3-3.7c-3.6-2.7-6-6.3-7.1-10.7c-0.5-1.8-0.6-3.7-0.5-5.5
		c0.2-3.8,1.4-7.3,3.7-10.4c2.8-3.7,6.5-6.1,11-7.2c2.1-0.5,4.2-0.6,6.3-0.4c4,0.4,7.6,2,10.6,4.7c0.1,0.1,0.1,0.2,0,0.3
		c-1.4,1.3-2.8,2.7-4.2,4.1c-0.2,0.2-0.4,0.4-0.6,0.6c-0.1,0.1-0.2,0.1-0.3,0c-1.1-1-2.4-1.8-3.8-2.2c-4.4-1.3-8.4-0.4-11.7,2.8
		c-2,1.9-3.2,4.2-3.5,6.9c-0.7,3.9,0.4,7.3,3.1,10.2c1.8,1.9,4,3.1,6.6,3.5c2.9,0.4,5.7,0,8.2-1.6c2.2-1.5,3.6-3.5,4.2-6.1
		c0-0.1,0-0.1,0-0.2c0-0.1,0-0.1-0.1-0.1c-0.1,0-0.1,0-0.2,0c-3.4,0-6.8,0-10.2,0c-0.2,0-0.2-0.1-0.2-0.2c0-2,0-4,0-6
		c0-0.2,0-0.2,0.2-0.2C-244.5,418.8-241.5,418.8-238.6,418.8z"/>
	<path class="st0" d="M-212.3,426.9c0,0.8,0,1.7,0,2.5c0,0.2-0.1,0.2-0.2,0.2c-1.7,0-3.3,0-5,0c-0.2,0-0.2,0-0.2-0.2
		c0-1.7,0-3.3,0-5c0-0.2-0.1-0.2-0.2-0.2c-1.7,0-3.3,0-5,0c-0.2,0-0.2,0-0.2-0.2c0-1.7,0-3.3,0-5c0-0.2,0.1-0.2,0.2-0.2
		c1.7,0,3.3,0,5,0c0.2,0,0.2,0,0.2-0.2c0-1.7,0-3.3,0-5c0-0.2,0.1-0.2,0.2-0.2c1.7,0,3.3,0,5,0c0.2,0,0.2,0,0.2,0.2c0,1.7,0,3.3,0,5
		c0,0.2,0.1,0.2,0.2,0.2c1.7,0,3.3,0,5,0c0.2,0,0.2,0,0.2,0.2c0,1.7,0,3.3,0,5c0,0.2-0.1,0.2-0.2,0.2c-1.7,0-3.3,0-5,0
		c-0.2,0-0.2,0-0.2,0.2C-212.3,425.2-212.3,426.1-212.3,426.9z"/>
</g>
</svg>
