<?xml version="1.0" encoding="utf-8"?>
<!-- Generator: Adobe Illustrator 19.1.0, SVG Export Plug-In . SVG Version: 6.00 Build 0)  -->
<svg version="1.1" id="レイヤー_1" xmlns="http://www.w3.org/2000/svg" xmlns:xlink="http://www.w3.org/1999/xlink" x="0px"
	 y="0px" viewBox="-267 390.9 60 60" style="enable-background:new -267 390.9 60 60;" xml:space="preserve">
<style type="text/css">
	.st0{fill:#999999;}
</style>
<g>
	<g>
		<path class="st0" d="M-259.9,443.8h8.6v-34.4h-8.6V443.8z M-225.5,409.4c-7.4,0.2-11,5.5-11.5,5.7v-5.7h-8.6v34.5h8.6v-20.2
			c0-0.8,1.8-6.7,8.6-5.7c3.7,0.2,5.6,5.1,5.7,5.7v20.1l8.7,0.1v-23.8C-214.3,416.6-216.1,409.5-225.5,409.4z M-255.6,397.9
			c-2.4,0-4.3,1.9-4.3,4.3s1.9,4.3,4.3,4.3c2.4,0,4.3-1.9,4.3-4.3S-253.2,397.9-255.6,397.9z"/>
	</g>
</g>
</svg>
