<?xml version="1.0" encoding="utf-8"?>
<!-- Generator: Adobe Illustrator 19.1.0, SVG Export Plug-In . SVG Version: 6.00 Build 0)  -->
<svg version="1.1" id="Icons" xmlns="http://www.w3.org/2000/svg" xmlns:xlink="http://www.w3.org/1999/xlink" x="0px" y="0px"
	 viewBox="-267 390.9 60 60" style="enable-background:new -267 390.9 60 60;" xml:space="preserve">
<style type="text/css">
	.st0{fill:#999999;}
</style>
<g>
	<polygon class="st0" points="-214.6,406.1 -215,406 -258.7,406 -259,406 -236.9,425.7 	"/>
	<path class="st0" d="M-212.1,408.1l-15.8,13.9l15.5,13.6c0.2-0.4,0.4-0.9,0.4-1.5v-25C-211.9,408.8-211.9,408.4-212.1,408.1z"/>
	<path class="st0" d="M-261.6,407.9c-0.2,0.3-0.2,0.7-0.2,1.2v25c0,0.4,0.1,0.9,0.2,1.2l15.7-13.4L-261.6,407.9z"/>
	<polygon class="st0" points="-236.9,430 -243.5,424 -258.9,437.2 -258.7,437.2 -215.2,437.2 -230.2,424.1 	"/>
</g>
</svg>
