<?xml version="1.0" encoding="utf-8"?>
<!-- Generator: Adobe Illustrator 19.1.0, SVG Export Plug-In . SVG Version: 6.00 Build 0)  -->
<svg version="1.1" id="レイヤー_1" xmlns="http://www.w3.org/2000/svg" xmlns:xlink="http://www.w3.org/1999/xlink" x="0px"
	 y="0px" viewBox="-267 390.9 60 60" style="enable-background:new -267 390.9 60 60;" xml:space="preserve">
<style type="text/css">
	.st0{fill:#999999;}
</style>
<path class="st0" d="M-214.2,406c-0.8,0.5-3.1,1.4-5.2,1.6c1.4-0.8,3.4-3.4,3.9-5.5c-1.4,0.9-4.4,2.3-5.9,2.3l0,0
	c-1.7-2-4.2-3.1-6.8-3.1c-5.2,0-9.4,4.5-9.4,10.1c0,0.8,0.1,1.5,0.2,2.3l0,0c-7-0.2-15.3-4-19.9-10.5c-2.9,5.3-0.4,11.2,2.9,13.4
	c-1.1,0.1-3.2-0.2-4.1-1.1c-0.1,3.6,1.5,8.2,7.3,9.9c-1.1,0.7-3,0.5-3.9,0.3c0.3,2.9,4.2,6.9,8.4,6.9c-1.5,1.9-6.7,5.3-13,4.2
	c4.3,2.9,9.4,4.5,14.7,4.5c15.2,0,27-13.2,26.3-29.6v-0.1c0-0.1,0-0.1,0-0.2c0-0.1,0-0.1,0-0.2C-217.4,410.2-215.5,408.4-214.2,406z
	"/>
</svg>
